<?xml version="1.0" standalone="no"?>
<!DOCTYPE svg PUBLIC "-//W3C//DTD SVG 20010904//EN"
 "http://www.w3.org/TR/2001/REC-SVG-20010904/DTD/svg10.dtd">
<svg version="1.0" xmlns="http://www.w3.org/2000/svg"
 width="512.000000pt" height="512.000000pt" viewBox="0 0 512.000000 512.000000"
 preserveAspectRatio="xMidYMid meet">
<metadata>
Created by potrace 1.16, written by Peter Selinger 2001-2019
</metadata>
<g transform="translate(0.000000,512.000000) scale(0.100000,-0.100000)"
fill="#0000ff" stroke="none">
<path d="M482 5105 c-30 -7 -92 -32 -140 -55 -123 -61 -214 -154 -275 -281
-25 -52 -50 -118 -56 -147 -15 -75 -15 -4049 0 -4124 6 -29 31 -95 56 -147 63
-131 153 -221 284 -284 52 -25 118 -50 147 -56 36 -8 375 -11 1057 -11 l1005
0 0 880 0 880 -320 0 -320 0 0 400 0 400 319 0 320 0 3 408 c4 388 5 411 27
482 101 337 344 580 681 681 71 22 94 23 483 27 l407 3 0 -399 0 -400 -262 -3
c-241 -4 -266 -6 -297 -24 -19 -11 -43 -33 -55 -48 -20 -27 -21 -41 -24 -378
l-3 -349 401 0 c379 0 402 -1 396 -17 -4 -10 -75 -190 -159 -400 l-152 -383
-242 0 -243 0 0 -880 0 -880 525 0 c337 0 543 4 577 11 29 6 95 31 147 56 131
63 221 153 284 284 25 52 50 118 56 147 15 75 15 4049 0 4124 -6 29 -31 95
-56 147 -63 131 -153 221 -284 284 -52 25 -118 50 -147 56 -83 17 -4069 14
-4140 -4z"/>
</g>
</svg>
